# xmcd
#
# Track frame offsets:
# 150
# 9634
# 20197
# 33195
# 52147
# 64173
# 81731
# 104228
# 114354
# 136365
# 152181
# 163077
# 185839
# 195684
# 217226
# 230583
# 248700
# 265498
# 280500
# 293275
# 306471
#
# Disc length: 4284 seconds
#
#
# Revision: 0
# Processed by: cddbd v1.5.1PL2 Copyright (c) Steve Scherf et al.
# Submitted via: FreeRIP 2.943 
#
DISCID=4910ba15
DTITLE=Владимир Высоцкии - Grand Collection
DYEAR=2001
DGENRE=country
TTITLE0=Я не люблю
TTITLE1=Песня о фатальных датах
TTITLE2=Корабли
TTITLE3=Лукоморья больше нет
TTITLE4=Бег иноходца
TTITLE5=В сон мне - желтые огни
TTITLE6=Попурри из военных песен
TTITLE7=Песня о вещеи Касандре
TTITLE8=Купола
TTITLE9=Раиские яблоки
TTITLE10=Очи черные
TTITLE11=Письмо пациентов Канатчиковои дачи
TTITLE12=Здесь вам не равнина
TTITLE13=Кони привередливые
TTITLE14=Здесь лапы у елеи
TTITLE15=Банька по черному
TTITLE16=Честь шахматнои короны - Подготовка
TTITLE17=Честь шахматнои короны - Игра
TTITLE18=Очи черные - Дорога
TTITLE19=Очи черные - Дом
TTITLE20=Охота на волков
EXTD=
EXTT0=
EXTT1=
EXTT2=
EXTT3=
EXTT4=
EXTT5=
EXTT6=
EXTT7=
EXTT8=
EXTT9=
EXTT10=
EXTT11=
EXTT12=
EXTT13=
EXTT14=
EXTT15=
EXTT16=
EXTT17=
EXTT18=
EXTT19=
EXTT20=
PLAYORDER=
